<svg id="Layer_1" data-name="Layer 1" xmlns="http://www.w3.org/2000/svg" viewBox="0 0 256.77 250"><title>menu-icon</title><ellipse cx="128.39" cy="125" rx="128.39" ry="125" style="fill:#9ea3a8"/><path d="M132,131.26a32.93,32.93,0,0,0,32.81-32.94,31.35,31.35,0,0,0-9.58-23.14A31.71,31.71,0,0,0,132,65.71,32.42,32.42,0,0,0,99.47,98V204.43A17.66,17.66,0,0,1,81,222.9a17.46,17.46,0,0,1-13.14-5.16,18.28,18.28,0,0,1-5-13.3V98.28Q62.87,69,82.8,49T132,29.05q29.3,0,49.35,20t20.06,49.31q0,29.34-20.06,49.44T132,167.86a17.56,17.56,0,0,1-13.15-5.15,18.24,18.24,0,0,1-5.06-13.28A17.22,17.22,0,0,1,130,131.26a15.86,15.86,0,0,1,1.95,0Z" transform="translate(-3.75 -0.98)" style="fill:#fff"/></svg>